<svg width="32" height="32" viewBox="0 0 32 32" fill="none" xmlns="http://www.w3.org/2000/svg">
<g filter="url(#filter0_d_8021_15972)">
<ellipse cx="15.362" cy="21.1809" rx="13.362" ry="5.1291" fill="#C6E7F5"/>
</g>
<ellipse cx="15.362" cy="20.3254" rx="13.362" ry="5.1291" fill="white"/>
<path d="M5.72534 10.7831L7.15139 11.0009C7.15139 11.0009 7.34663 10.9985 7.47125 10.9682V10.0947C7.47125 10.0947 6.64755 10.8205 5.72594 10.7831H5.72534Z" fill="#5A31DD"/>
<path d="M9.61719 7.42969L10.2124 7.97741V20.9828L9.61719 21.5299V7.42969Z" fill="#5A31DD"/>
<path d="M7.47115 21.5293V10.0953C7.28956 10.3143 7.03319 10.4834 6.70264 10.6039C6.3715 10.7238 6.04629 10.7843 5.72583 10.7843V9.19096C6.17922 9.12687 6.61066 8.94291 7.01894 8.63848C7.42723 8.33406 7.7382 7.93113 7.95184 7.42969H9.61704V21.5299H7.47115V21.5293Z" fill="white"/>
<path d="M9.41467 7.63281V21.3272H7.67351V9.53472L7.31507 9.96673C7.15721 10.156 6.92814 10.3068 6.63261 10.4142C6.39464 10.5002 6.15904 10.5536 5.927 10.5732V9.36144C6.35013 9.27362 6.75723 9.08491 7.13881 8.80066C7.54058 8.50217 7.85748 8.10933 8.08239 7.63281H9.41467Z" fill="#7654E3"/>
<path d="M16.5381 20.6882C16.0337 21.3605 15.2236 21.697 14.1079 21.697C12.9923 21.697 12.1822 21.3605 11.6778 20.6882C11.1734 20.0158 10.9211 19.0284 10.9211 17.7258V10.9917C10.9211 9.7532 11.1757 8.82331 11.6855 8.20141C12.1959 7.57951 13.0035 7.26855 14.1085 7.26855C15.2135 7.26855 16.0206 7.57951 16.531 8.20141C17.0407 8.82331 17.2953 9.7538 17.2953 10.9917V17.7252C17.2953 19.0278 17.0431 20.0152 16.5387 20.6876L16.5381 20.6882ZM14.0878 19.8473C14.4266 19.8473 14.6883 19.7149 14.8723 19.4509C15.0563 19.1868 15.1488 18.6248 15.1488 17.7656V10.9038C15.1435 9.86299 14.9008 9.27847 14.4201 9.15029C14.324 9.12893 14.1702 9.11824 13.9596 9.11824C13.7489 9.11824 13.5459 9.22209 13.3513 9.43038C13.1566 9.63867 13.0593 10.1271 13.0593 10.8955V17.7656C13.0593 18.6409 13.146 19.207 13.3192 19.4627C13.4925 19.7191 13.7489 19.8473 14.0878 19.8473Z" fill="white"/>
<path d="M11.1239 12.5692V17.4216L12.8567 16.4216V11.5692L11.1239 12.5692ZM11.1239 17.4216V17.726C11.1239 17.7545 11.1239 17.7835 11.1251 17.812L12.8573 16.8121V16.4216L11.1245 17.4216H11.1239ZM16.9776 9.71955C16.945 9.55636 16.9058 9.40267 16.8589 9.25787C16.7414 8.89173 16.5794 8.58197 16.3729 8.33095C16.1889 8.10605 15.9581 7.92387 15.6827 7.78857C15.2614 7.5779 14.7344 7.47168 14.1077 7.47168C13.0722 7.47168 12.3102 7.76127 11.8425 8.33095C11.4479 8.81162 11.2141 9.50889 11.1458 10.4079C11.1304 10.5943 11.1233 10.7895 11.1233 10.993V17.7266C11.1233 17.7551 11.1233 17.7841 11.1245 17.8126C11.1274 18.1823 11.1518 18.5253 11.1987 18.841C11.3031 19.5596 11.5173 20.1376 11.8402 20.5679C12.3078 21.1921 13.0496 21.4948 14.1077 21.4948C15.1658 21.4948 15.9076 21.1921 16.3765 20.5679C16.8512 19.9341 17.0922 18.9787 17.0922 17.7266V10.993C17.0922 10.5225 17.0536 10.0982 16.9776 9.71955ZM15.3522 17.7669C15.3522 18.6766 15.2501 19.2659 15.0394 19.568C14.8157 19.889 14.4958 20.051 14.0881 20.051C13.6804 20.051 13.3641 19.892 13.1517 19.578C12.9594 19.2926 12.865 18.752 12.8579 17.8838C12.8567 17.8453 12.8567 17.8067 12.8567 17.7675V10.8969C12.8567 10.056 12.9671 9.54568 13.2039 9.29229C13.2911 9.19913 13.3819 9.12198 13.4751 9.06383L13.5226 9.03653C13.6632 8.95642 13.8092 8.91725 13.96 8.91725C14.1866 8.91725 14.3516 8.92853 14.4721 8.95582C14.9178 9.07451 15.1896 9.47032 15.2982 10.1605C15.3225 10.3124 15.3379 10.4791 15.3456 10.6613C15.3498 10.7391 15.3516 10.8209 15.3516 10.9052V17.7669H15.3522ZM11.1239 12.5692V17.7266C11.1239 17.7551 11.1239 17.7841 11.1251 17.8126L12.8573 16.8127V11.5692L11.1245 12.5692H11.1239Z" fill="#7654E3"/>
<path d="M13.8162 19.0657C13.694 19.3018 13.5213 19.4229 13.2987 19.43C13.3053 19.4413 13.3118 19.4532 13.3189 19.4633C13.4922 19.7196 13.7486 19.8478 14.0874 19.8478C14.4263 19.8478 14.688 19.7155 14.872 19.4514C15.0559 19.1873 15.1485 18.6253 15.1485 17.7661V10.9038C15.1432 9.86291 14.9005 9.27839 14.4198 9.15021C14.3236 9.12885 14.1699 9.11816 13.9592 9.11816C13.7486 9.11816 13.5456 9.22201 13.351 9.4303C13.3231 9.45997 13.2982 9.49558 13.2744 9.53653C13.3759 9.53949 13.4536 9.54899 13.5059 9.56442C13.8352 9.68251 14.002 10.2219 14.0055 11.1815V17.5109C14.0055 18.3037 13.9426 18.8218 13.8162 19.0657Z" fill="#5A31DD"/>
<g style="mix-blend-mode:screen">
<path d="M7.67358 14.5608L9.41475 13.5555V11.4068L7.67358 12.412V14.5608ZM12.8561 16.8122L11.1239 17.8121C11.1268 18.1818 11.1512 18.5248 11.198 18.8405L12.8573 17.8828C12.8561 17.8442 12.8561 17.8056 12.8561 17.7664V16.8116V16.8122ZM7.67358 19.4138L9.41475 18.4085V14.0855L7.67358 15.0907V19.4138ZM7.67358 20.8754L9.41475 19.8701V18.799L7.67358 19.8042V20.8754ZM12.8567 12.0981L11.1239 13.0992V17.4217L12.8567 16.4218V12.0987V12.0981ZM15.3522 16.4425L17.0921 15.4373V14.3661L15.3522 15.3714V16.4425ZM11.1239 10.9926V12.5687L12.8567 11.5688V10.8964C12.8567 10.0555 12.9671 9.5452 13.2039 9.29181C13.2911 9.19865 13.3819 9.1215 13.4751 9.06335L11.1458 10.4074C11.1304 10.5938 11.1233 10.789 11.1233 10.9926H11.1239ZM16.9776 9.71907L15.3456 10.6602C15.3498 10.738 15.3516 10.8199 15.3516 10.9041V14.9803L17.0915 13.9751V10.992C17.0915 10.5214 17.053 10.0971 16.977 9.71848L16.9776 9.71907ZM16.3735 8.33047C16.1895 8.10557 15.9587 7.92339 15.6833 7.78809L13.5232 9.03605C13.6638 8.95594 13.8098 8.91677 13.9605 8.91677C14.1872 8.91677 14.3522 8.92805 14.4727 8.95534C14.9184 9.07403 15.1901 9.46984 15.2987 10.16L16.8595 9.25799C16.742 8.89185 16.58 8.58208 16.3735 8.33107V8.33047Z" fill="#492867"/>
</g>
<mask id="mask0_8021_15972" style="mask-type:alpha" maskUnits="userSpaceOnUse" x="17" y="7" width="8" height="15">
<rect x="17.4609" y="7" width="7.26475" height="14.7986" fill="#D9D9D9"/>
</mask>
<g mask="url(#mask0_8021_15972)">
<path d="M23.4304 20.6882C22.926 21.3605 22.1159 21.697 21.0003 21.697C19.8846 21.697 19.0745 21.3605 18.5701 20.6882C18.0657 20.0158 17.8135 19.0284 17.8135 17.7258V10.9917C17.8135 9.7532 18.0681 8.82331 18.5778 8.20141C19.0882 7.57951 19.8959 7.26855 21.0009 7.26855C22.1059 7.26855 22.9129 7.57951 23.4233 8.20141C23.9331 8.82331 24.1877 9.7538 24.1877 10.9917V17.7252C24.1877 19.0278 23.9354 20.0152 23.431 20.6876L23.4304 20.6882ZM20.9801 19.8473C21.319 19.8473 21.5807 19.7149 21.7646 19.4509C21.9486 19.1868 22.0412 18.6248 22.0412 17.7656V10.9038C22.0358 9.86299 21.7931 9.27847 21.3124 9.15029C21.2163 9.12893 21.0626 9.11824 20.8519 9.11824C20.6412 9.11824 20.4383 9.22209 20.2436 9.43038C20.049 9.63867 19.9517 10.1271 19.9517 10.8955V17.7656C19.9517 18.6409 20.0383 19.207 20.2116 19.4627C20.3849 19.7191 20.6412 19.8473 20.9801 19.8473Z" fill="white"/>
<path d="M18.0162 12.5692V17.4216L19.7491 16.4216V11.5692L18.0162 12.5692ZM18.0162 17.4216V17.726C18.0162 17.7545 18.0162 17.7835 18.0174 17.812L19.7497 16.8121V16.4216L18.0168 17.4216H18.0162ZM23.87 9.71955C23.8373 9.55636 23.7981 9.40267 23.7513 9.25787C23.6338 8.89173 23.4717 8.58197 23.2652 8.33095C23.0813 8.10605 22.8504 7.92387 22.5751 7.78857C22.1537 7.5779 21.6267 7.47168 21.0001 7.47168C19.9645 7.47168 19.2025 7.76127 18.7349 8.33095C18.3402 8.81162 18.1064 9.50889 18.0382 10.4079C18.0227 10.5943 18.0156 10.7895 18.0156 10.993V17.7266C18.0156 17.7551 18.0156 17.7841 18.0168 17.8126C18.0198 18.1823 18.0441 18.5253 18.091 18.841C18.1954 19.5596 18.4097 20.1376 18.7325 20.5679C19.2001 21.1921 19.9419 21.4948 21.0001 21.4948C22.0582 21.4948 22.8 21.1921 23.2688 20.5679C23.7435 19.9341 23.9845 18.9787 23.9845 17.7266V10.993C23.9845 10.5225 23.9459 10.0982 23.87 9.71955ZM22.2445 17.7669C22.2445 18.6766 22.1424 19.2659 21.9318 19.568C21.708 19.889 21.3882 20.051 20.9805 20.051C20.5728 20.051 20.2565 19.892 20.044 19.578C19.8517 19.2926 19.7574 18.752 19.7503 17.8838C19.7491 17.8453 19.7491 17.8067 19.7491 17.7675V10.8969C19.7491 10.056 19.8595 9.54568 20.0962 9.29229C20.1835 9.19913 20.2743 9.12198 20.3674 9.06383L20.4149 9.03653C20.5556 8.95642 20.7016 8.91725 20.8523 8.91725C21.079 8.91725 21.244 8.92853 21.3644 8.95582C21.8101 9.07451 22.0819 9.47032 22.1905 10.1605C22.2148 10.3124 22.2303 10.4791 22.238 10.6613C22.2421 10.7391 22.2439 10.8209 22.2439 10.9052V17.7669H22.2445ZM18.0162 12.5692V17.7266C18.0162 17.7551 18.0162 17.7841 18.0174 17.8126L19.7497 16.8127V11.5692L18.0168 12.5692H18.0162Z" fill="#7654E3"/>
<path d="M20.7091 19.0657C20.5868 19.3018 20.4141 19.4229 20.1916 19.43C20.1981 19.4413 20.2046 19.4532 20.2117 19.4633C20.385 19.7196 20.6414 19.8478 20.9803 19.8478C21.3191 19.8478 21.5808 19.7155 21.7648 19.4514C21.9488 19.1873 22.0413 18.6253 22.0413 17.7661V10.9038C22.036 9.86291 21.7933 9.27839 21.3126 9.15021C21.2164 9.12885 21.0627 9.11816 20.8521 9.11816C20.6414 9.11816 20.4384 9.22201 20.2438 9.4303C20.2159 9.45997 20.191 9.49558 20.1672 9.53653C20.2687 9.53949 20.3465 9.54899 20.3987 9.56442C20.728 9.68251 20.8948 10.2219 20.8984 11.1815V17.5109C20.8984 18.3037 20.8355 18.8218 20.7091 19.0657Z" fill="#5A31DD"/>
<g style="mix-blend-mode:screen">
<path d="M14.5662 14.5608L16.3073 13.5555V11.4068L14.5662 12.412V14.5608ZM19.7487 16.8122L18.0164 17.8121C18.0194 18.1818 18.0437 18.5248 18.0906 18.8405L19.7499 17.8828C19.7487 17.8442 19.7487 17.8056 19.7487 17.7664V16.8116V16.8122ZM14.5662 19.4138L16.3073 18.4085V14.0855L14.5662 15.0907V19.4138ZM14.5662 20.8754L16.3073 19.8701V18.799L14.5662 19.8042V20.8754ZM19.7493 12.0981L18.0164 13.0992V17.4217L19.7493 16.4218V12.0987V12.0981ZM22.2447 16.4425L23.9847 15.4373V14.3661L22.2447 15.3714V16.4425ZM18.0164 10.9926V12.5687L19.7493 11.5688V10.8964C19.7493 10.0555 19.8597 9.5452 20.0965 9.29181C20.1837 9.19865 20.2745 9.1215 20.3677 9.06335L18.0384 10.4074C18.023 10.5938 18.0159 10.789 18.0159 10.9926H18.0164ZM23.8702 9.71907L22.2382 10.6602C22.2424 10.738 22.2441 10.8199 22.2441 10.9041V14.9803L23.9841 13.9751V10.992C23.9841 10.5214 23.9455 10.0971 23.8696 9.71848L23.8702 9.71907ZM23.2661 8.33047C23.0821 8.10557 22.8512 7.92339 22.5759 7.78809L20.4157 9.03605C20.5564 8.95594 20.7024 8.91677 20.8531 8.91677C21.0798 8.91677 21.2448 8.92805 21.3653 8.95534C21.8109 9.07403 22.0827 9.46984 22.1913 10.16L23.7521 9.25799C23.6346 8.89185 23.4726 8.58208 23.2661 8.33107V8.33047Z" fill="#492867"/>
</g>
</g>
<defs>
<filter id="filter0_d_8021_15972" x="0" y="16.0518" width="30.7241" height="14.2578" filterUnits="userSpaceOnUse" color-interpolation-filters="sRGB">
<feFlood flood-opacity="0" result="BackgroundImageFix"/>
<feColorMatrix in="SourceAlpha" type="matrix" values="0 0 0 0 0 0 0 0 0 0 0 0 0 0 0 0 0 0 127 0" result="hardAlpha"/>
<feOffset dy="2"/>
<feGaussianBlur stdDeviation="1"/>
<feComposite in2="hardAlpha" operator="out"/>
<feColorMatrix type="matrix" values="0 0 0 0 0.741176 0 0 0 0 0.67451 0 0 0 0 0.952941 0 0 0 1 0"/>
<feBlend mode="normal" in2="BackgroundImageFix" result="effect1_dropShadow_8021_15972"/>
<feBlend mode="normal" in="SourceGraphic" in2="effect1_dropShadow_8021_15972" result="shape"/>
</filter>
</defs>
</svg>
