<svg width="32" height="32" viewBox="0 0 32 32" fill="none" xmlns="http://www.w3.org/2000/svg">
<g filter="url(#filter0_d_8021_18926)">
<ellipse cx="15.6397" cy="18.6944" rx="13.6397" ry="4.09578" fill="#C6E7F5"/>
</g>
<ellipse cx="15.6397" cy="18.0118" rx="13.6397" ry="4.09578" fill="white"/>
<g clip-path="url(#clip0_8021_18926)">
<path d="M14.2009 20.5074L16.1218 19.3903L16.1233 18.9268L14.2024 20.0438L14.2009 20.5074Z" fill="#5A31DD"/>
<path d="M6.93218 15.5234L6.92992 16.3069L14.2009 20.5075L14.2024 20.0439L14.2031 19.7239L6.93218 15.5234Z" fill="#5A31DD"/>
<path d="M14.2024 20.0435L16.1233 18.9264L16.124 18.6064L14.2031 19.7235L14.2024 20.0435Z" fill="white"/>
<path d="M14.2031 19.7239L16.124 18.6068L8.85308 14.4062L6.93219 15.5233L14.2031 19.7239Z" fill="white"/>
<path d="M14.2031 19.7236L16.124 18.6065L16.1289 16.9424L14.2076 18.0595L14.2031 19.7236Z" fill="white"/>
<path d="M14.2077 18.0597L16.129 16.9426L16.135 14.7783L14.2141 15.8954L14.2077 18.0597Z" fill="#845FFF"/>
<path d="M9.92379 8.24541L8.00289 9.3625C8.66358 8.9783 9.57872 9.03232 10.5886 9.61599L12.5095 8.4989C11.4996 7.91523 10.5845 7.86121 9.92379 8.24541Z" fill="#845FFF"/>
<path d="M10.5886 9.61592C8.58167 8.45652 6.94921 9.38737 6.9428 11.6948L6.93185 15.5232L14.2028 19.7237L14.2073 18.0596L14.2134 15.8953C14.2198 13.5875 12.5983 10.7768 10.5883 9.61554L10.5886 9.61592Z" fill="#5A31DD"/>
<path d="M14.2141 15.8949L16.135 14.7778C16.1414 12.47 14.5199 9.65934 12.5099 8.49805L10.589 9.61514C12.599 10.7764 14.2209 13.5871 14.2141 15.8949Z" fill="#845FFF"/>
<path d="M14.2145 15.7383L14.2141 15.8951L14.2077 18.0593L14.8748 18.4447L14.8816 16.1236L14.2145 15.7383Z" fill="#5A31DD"/>
<path d="M14.8748 18.445L16.7961 17.3279L16.8025 15.0068L14.8816 16.1239L14.8748 18.445Z" fill="#5A31DD"/>
<path d="M14.8816 16.1235L16.8025 15.0064L16.1354 14.6211L14.2145 15.7382L14.8816 16.1235Z" fill="white"/>
<path d="M14.2033 19.7207L14.2025 20.0441L21.1167 24.0387L21.1174 23.7153L14.2033 19.7207Z" fill="#5A31DD"/>
<path d="M21.1165 24.0391L23.0374 22.922L23.0386 22.5986L21.1173 23.7157L21.1165 24.0391Z" fill="#845FFF"/>
<path d="M14.2051 19.7208L21.1189 23.7161L23.0405 22.5979L22.3455 22.1979L22.082 22.0433L21.2642 21.5753L21.0011 21.4208L20.1879 20.9478L19.9244 20.7978L19.1066 20.3252L18.8431 20.1752L18.0254 19.7026L17.7664 19.5523L16.949 19.0797L16.6855 18.9252L16.1222 18.6025L14.2051 19.7208Z" fill="#845FFF"/>
<path d="M21.1173 23.7148L21.1166 24.0382L21.1143 24.8119L21.4394 24.9997L21.4424 23.9026L21.1173 23.7148Z" fill="#888ABF"/>
<path d="M21.4394 24.9993L23.3603 23.8822L23.3633 22.7852L21.4424 23.9022L21.4394 24.9993Z" fill="#AEB2F4"/>
<path d="M21.4424 23.9025L23.3633 22.7854L23.0386 22.5977L21.1173 23.7147L21.4424 23.9025Z" fill="#D7DAFF"/>
<path d="M16.0357 19.3022L16.2992 19.4522L16.949 19.0793L16.6855 18.9248L16.0357 19.3022Z" fill="white"/>
<path d="M17.117 19.9246L17.3806 20.0746L18.0254 19.7021L17.7664 19.5518L17.117 19.9246Z" fill="white"/>
<path d="M18.1938 20.5473L18.457 20.6976L19.1067 20.3248L18.8432 20.1748L18.1938 20.5473Z" fill="white"/>
<path d="M19.2745 21.1707L19.538 21.3252L20.1877 20.9478L19.9242 20.7979L19.2745 21.1707Z" fill="white"/>
<path d="M20.3558 21.7924L20.6148 21.9469L21.2642 21.5744L21.001 21.4199L20.3558 21.7924Z" fill="white"/>
<path d="M21.4326 22.4204L21.6957 22.5703L22.3455 22.1975L22.0819 22.043L21.4326 22.4204Z" fill="white"/>
<path d="M11.3589 13.191V15.9779L9.78759 15.0701V12.2832L11.3589 13.191ZM10.5747 14.5215C10.7839 14.6424 10.9564 14.449 10.9564 14.0928C10.9564 13.7365 10.7839 13.3436 10.5747 13.2227C10.363 13.1003 10.1904 13.2907 10.1904 13.6504C10.1904 14.01 10.363 14.3995 10.5747 14.5219V14.5215Z" fill="white"/>
<path d="M9.78759 15.6494L11.3589 16.5572V15.9781L9.78759 15.0703V15.6494Z" fill="white"/>
</g>
<defs>
<filter id="filter0_d_8021_18926" x="0" y="14.5986" width="31.2793" height="12.1914" filterUnits="userSpaceOnUse" color-interpolation-filters="sRGB">
<feFlood flood-opacity="0" result="BackgroundImageFix"/>
<feColorMatrix in="SourceAlpha" type="matrix" values="0 0 0 0 0 0 0 0 0 0 0 0 0 0 0 0 0 0 127 0" result="hardAlpha"/>
<feOffset dy="2"/>
<feGaussianBlur stdDeviation="1"/>
<feComposite in2="hardAlpha" operator="out"/>
<feColorMatrix type="matrix" values="0 0 0 0 0.741176 0 0 0 0 0.67451 0 0 0 0 0.952941 0 0 0 1 0"/>
<feBlend mode="normal" in2="BackgroundImageFix" result="effect1_dropShadow_8021_18926"/>
<feBlend mode="normal" in="SourceGraphic" in2="effect1_dropShadow_8021_18926" result="shape"/>
</filter>
<clipPath id="clip0_8021_18926">
<rect width="16.4333" height="17" fill="white" transform="matrix(-1 0 0 1 23.3633 8)"/>
</clipPath>
</defs>
</svg>
