<svg width="32" height="32" viewBox="0 0 32 32" fill="none" xmlns="http://www.w3.org/2000/svg">
<g clip-path="url(#clip0_8020_15847)">
<g filter="url(#filter0_d_8020_15847)">
<ellipse cx="16.1328" cy="21.5754" rx="14.1328" ry="5.42497" fill="#C6E7F5"/>
</g>
<ellipse cx="16.1328" cy="20.6711" rx="14.1328" ry="5.42497" fill="white"/>
<path d="M10.9385 12.8888C10.3822 11.2283 10.3806 9.38827 10.3073 7.65772C10.285 7.13312 10.1909 6.35036 10.4802 5.87587C10.5805 5.71135 10.7046 5.63159 10.8424 5.60225C11.1115 5.51265 11.386 5.44038 11.6607 5.37028C12.0307 5.27575 12.3259 5.39332 12.6929 5.47957C13.0857 5.57183 13.4882 5.65512 13.8915 5.65178C14.3266 5.64813 14.8106 5.4901 15.2342 5.36654C15.6718 5.23893 16.1135 5.12698 16.5531 5.00646C16.9583 4.96993 17.3469 5.09498 17.7297 5.21185C18.2458 5.36939 18.7606 5.54298 19.2997 5.59309C19.7419 5.63455 20.179 5.54652 20.6089 5.45141C21.0736 5.34852 21.6977 4.98677 22.0441 5.50221C22.3593 5.97158 22.3087 6.75562 22.3155 7.28032C22.3384 9.01126 22.439 10.8505 21.9752 12.5196C21.5778 13.95 21.0225 15.3671 20.1431 16.5736C19.4291 17.5533 18.3862 18.503 17.2359 18.908C16.7855 19.0666 16.2022 19.3139 15.7314 19.1059C14.9437 18.7578 14.1713 18.1752 13.5684 17.5614C12.2958 16.2654 11.5035 14.576 10.9384 12.8889L10.9385 12.8888Z" fill="#5A31DD"/>
<path opacity="0.2" d="M11.8349 6.09807C11.9558 5.89967 12.1144 5.83498 12.2897 5.83351C12.5197 5.83154 12.7785 5.93856 13.018 5.99488C13.3795 6.07985 13.75 6.15646 14.121 6.15331C14.2018 6.15262 14.2827 6.14819 14.3636 6.13913C15.0061 6.06804 15.5972 5.8084 16.2099 5.6293C16.3895 5.57692 16.5487 5.55407 16.7005 5.55279C17.0115 5.55013 17.2916 5.63806 17.6532 5.74843C18.1281 5.89337 18.6019 6.05317 19.0981 6.09925C19.1793 6.10683 19.2605 6.10998 19.3414 6.10929C19.7125 6.10614 20.0785 6.02334 20.4351 5.93236C20.6715 5.872 20.9242 5.76074 21.1543 5.75877C21.3296 5.7573 21.4917 5.81923 21.6237 6.01556C21.9136 6.44751 21.8671 7.16903 21.8734 7.65188C21.8945 9.24488 21.9871 10.9374 21.5601 12.4734C21.1945 13.7897 20.6834 15.0938 19.8742 16.2042C19.4765 16.7495 19.0054 17.2445 18.4567 17.6444C18.0588 17.934 17.5666 18.3485 17.0517 18.3528C16.9246 18.3539 16.7962 18.33 16.6674 18.2731C15.9426 17.9528 15.2317 17.4165 14.6768 16.8518C13.5057 15.6591 12.7766 14.1043 12.2566 12.5519C11.7447 11.0238 11.7431 9.33044 11.6757 7.73784C11.6552 7.25508 11.5688 6.53474 11.8349 6.09807Z" fill="#E7E0FC"/>
<path d="M20.4978 8.81181C20.3379 8.6333 20.1244 8.54292 19.9085 8.54105C19.6925 8.53917 19.4742 8.62592 19.3045 8.80167L16.0161 12.2075L14.4476 10.4561C14.2877 10.2777 14.0741 10.1874 13.8582 10.1855C13.6422 10.1837 13.424 10.2703 13.2542 10.4459C12.9152 10.7974 12.8994 11.3714 13.219 11.7284L15.3666 14.1259C15.5204 14.2973 15.7322 14.3948 15.956 14.3967C16.1797 14.3986 16.3971 14.3047 16.5599 14.1361L20.4627 10.094C20.8017 9.74286 20.8175 9.16844 20.4979 8.81171L20.4978 8.81181Z" fill="white"/>
<path d="M10.6689 20.7617C12.3083 21.3564 16.7312 22.189 21.3081 20.7617" stroke="#CFC7E8" stroke-width="1.5" stroke-linecap="square"/>
</g>
<defs>
<filter id="filter0_d_8020_15847" x="0" y="16.1504" width="32.2656" height="14.8496" filterUnits="userSpaceOnUse" color-interpolation-filters="sRGB">
<feFlood flood-opacity="0" result="BackgroundImageFix"/>
<feColorMatrix in="SourceAlpha" type="matrix" values="0 0 0 0 0 0 0 0 0 0 0 0 0 0 0 0 0 0 127 0" result="hardAlpha"/>
<feOffset dy="2"/>
<feGaussianBlur stdDeviation="1"/>
<feComposite in2="hardAlpha" operator="out"/>
<feColorMatrix type="matrix" values="0 0 0 0 0.741176 0 0 0 0 0.67451 0 0 0 0 0.952941 0 0 0 1 0"/>
<feBlend mode="normal" in2="BackgroundImageFix" result="effect1_dropShadow_8020_15847"/>
<feBlend mode="normal" in="SourceGraphic" in2="effect1_dropShadow_8020_15847" result="shape"/>
</filter>
<clipPath id="clip0_8020_15847">
<rect width="32" height="32" fill="white"/>
</clipPath>
</defs>
</svg>
